<svg xmlns="http://www.w3.org/2000/svg" viewBox="0 0 128 128" role="img" aria-label="JetStream icon">
  <path
    d="M6 34 C14 18 26 18 34 34 C42 50 54 50 62 34 C70 18 82 18 90 34 C98 50 114 50 122 34"
    fill="none"
    stroke="#0d8fb3"
    stroke-width="12"
    stroke-linecap="round"
  />
  <path
    d="M6 64 C14 48 26 48 34 64 C42 80 54 80 62 64 C70 48 82 48 90 64 C98 80 114 80 122 64"
    fill="none"
    stroke="#0d8fb3"
    stroke-width="12"
    stroke-linecap="round"
  />
  <path
    d="M6 94 C14 78 26 78 34 94 C42 110 54 110 62 94 C70 78 82 78 90 94 C98 110 114 110 122 94"
    fill="none"
    stroke="#0d8fb3"
    stroke-width="12"
    stroke-linecap="round"
  />
</svg>
